<svg width="978" height="539" viewBox="0 0 978 539" fill="none" xmlns="http://www.w3.org/2000/svg">
<rect width="978" height="539" fill="white"/>
<rect x="40" y="40" width="429" height="199" rx="5" fill="#F4B000"/>
<rect x="40" y="279" width="620" height="220" rx="5" fill="#F4B000"/>
<rect x="700" y="278" width="238" height="109" rx="5" fill="#F4B000"/>
<rect x="509" y="40" width="429" height="199" rx="5" fill="#F4B000"/>
<path d="M93.2092 131.377C94.9076 128.858 97.2349 126.811 100.191 125.237C103.211 123.662 106.639 122.875 110.476 122.875C114.942 122.875 118.967 123.977 122.553 126.181C126.201 128.385 129.063 131.534 131.139 135.627C133.277 139.657 134.347 144.349 134.347 149.702C134.347 155.054 133.277 159.809 131.139 163.965C129.063 168.058 126.201 171.238 122.553 173.505C118.967 175.772 114.942 176.906 110.476 176.906C106.576 176.906 103.148 176.15 100.191 174.639C97.2978 173.064 94.9705 171.049 93.2092 168.593V176.055H80V106.156H93.2092V131.377ZM120.854 149.702C120.854 146.553 120.194 143.845 118.873 141.578C117.615 139.248 115.917 137.485 113.778 136.288C111.702 135.092 109.438 134.494 106.985 134.494C104.594 134.494 102.33 135.123 100.191 136.383C98.1155 137.579 96.4172 139.343 95.0963 141.673C93.8382 144.003 93.2092 146.742 93.2092 149.89C93.2092 153.039 93.8382 155.778 95.0963 158.108C96.4172 160.438 98.1155 162.233 100.191 163.492C102.33 164.689 104.594 165.287 106.985 165.287C109.438 165.287 111.702 164.657 113.778 163.398C115.917 162.139 117.615 160.344 118.873 158.014C120.194 155.684 120.854 152.913 120.854 149.702Z" fill="white"/>
<path d="M150.644 117.491C148.317 117.491 146.367 116.767 144.795 115.319C143.285 113.807 142.53 111.95 142.53 109.746C142.53 107.542 143.285 105.715 144.795 104.267C146.367 102.756 148.317 102 150.644 102C152.972 102 154.89 102.756 156.4 104.267C157.972 105.715 158.759 107.542 158.759 109.746C158.759 111.95 157.972 113.807 156.4 115.319C154.89 116.767 152.972 117.491 150.644 117.491ZM157.155 123.725V176.055H143.945V123.725H157.155Z" fill="white"/>
<path d="M201.153 176.055L183.415 153.763V176.055H170.205V106.156H183.415V145.923L200.964 123.725H218.136L195.114 149.985L218.325 176.055H201.153Z" fill="white"/>
<path d="M219.288 149.89C219.288 144.475 220.388 139.752 222.59 135.722C224.792 131.628 227.842 128.48 231.742 126.276C235.642 124.009 240.108 122.875 245.14 122.875C251.619 122.875 256.966 124.513 261.18 127.787C265.457 130.999 268.319 135.533 269.766 141.389H255.519C254.764 139.122 253.474 137.359 251.65 136.099C249.889 134.777 247.688 134.116 245.046 134.116C241.272 134.116 238.284 135.501 236.082 138.272C233.881 140.98 232.78 144.853 232.78 149.89C232.78 154.865 233.881 158.738 236.082 161.509C238.284 164.217 241.272 165.571 245.046 165.571C250.392 165.571 253.883 163.178 255.519 158.392H269.766C268.319 164.059 265.457 168.562 261.18 171.899C256.903 175.237 251.556 176.906 245.14 176.906C240.108 176.906 235.642 175.804 231.742 173.599C227.842 171.332 224.792 168.184 222.59 164.154C220.388 160.06 219.288 155.306 219.288 149.89Z" fill="white"/>
<path d="M290.031 131.849C291.73 129.078 293.931 126.906 296.636 125.331C299.403 123.757 302.548 122.97 306.071 122.97V136.855H302.58C298.428 136.855 295.283 137.831 293.145 139.783C291.069 141.736 290.031 145.136 290.031 149.985V176.055H276.822V123.725H290.031V131.849Z" fill="white"/>
<path d="M346.576 168.593C345.129 170.986 342.77 173.001 339.499 174.639C336.229 176.213 332.706 177 328.932 177C325.661 177 322.705 176.339 320.063 175.016C317.421 173.694 315.345 171.868 313.836 169.538C312.326 167.208 311.571 164.531 311.571 161.509C311.571 156.66 313.364 152.693 316.949 149.607C320.598 146.521 326.039 144.979 333.272 144.979H346.576C346.45 141.641 345.475 138.996 343.651 137.044C341.89 135.029 339.437 134.021 336.292 134.021C333.524 134.021 331.228 134.777 329.404 136.288C327.58 137.737 326.416 139.783 325.913 142.428H312.704C313.333 138.65 314.685 135.281 316.761 132.321C318.899 129.298 321.667 126.969 325.064 125.331C328.523 123.631 332.392 122.781 336.669 122.781C341.072 122.781 345.035 123.694 348.557 125.52C352.143 127.346 354.942 129.96 356.955 133.36C358.967 136.761 359.974 140.759 359.974 145.356V176.055H346.576V168.593ZM332.8 166.326C335.002 166.326 337.141 165.854 339.216 164.909C341.355 163.965 343.116 162.548 344.5 160.659C345.884 158.77 346.576 156.534 346.576 153.952V153.574H334.027C331.008 153.574 328.743 154.173 327.234 155.369C325.787 156.565 325.064 158.14 325.064 160.092C325.064 161.981 325.724 163.492 327.045 164.626C328.429 165.759 330.347 166.326 332.8 166.326Z" fill="white"/>
<path d="M387.83 134.588V176.055H374.432V134.588H368.488V123.725H374.432V121.081C374.432 114.657 376.256 109.935 379.904 106.912C383.552 103.889 389.056 102.472 396.416 102.661V113.807C393.208 113.744 390.975 114.28 389.717 115.413C388.459 116.547 387.83 118.593 387.83 121.553V123.725H404.997V110.785H418.3V123.725H430V134.588H418.3V159.903C418.3 161.666 418.709 162.957 419.527 163.776C420.408 164.531 421.854 164.909 423.867 164.909H430V176.055H421.697C410.564 176.055 404.997 170.64 404.997 159.809V134.588H387.83Z" fill="white"/>
<path d="M116.117 377.515C118.575 373.869 121.943 370.907 126.222 368.629C130.591 366.351 135.552 365.212 141.105 365.212C147.569 365.212 153.395 366.806 158.584 369.996C163.864 373.186 168.006 377.743 171.01 383.667C174.105 389.499 175.652 396.289 175.652 404.035C175.652 411.782 174.105 418.663 171.01 424.678C168.006 430.601 163.864 435.204 158.584 438.485C153.395 441.766 147.569 443.406 141.105 443.406C135.461 443.406 130.5 442.312 126.222 440.125C122.034 437.847 118.666 434.93 116.117 431.376V442.176H97V341.015H116.117V377.515ZM156.126 404.035C156.126 399.479 155.17 395.56 153.258 392.279C151.438 388.907 148.98 386.355 145.885 384.623C142.881 382.892 139.603 382.026 136.053 382.026C132.594 382.026 129.317 382.937 126.222 384.76C123.217 386.492 120.76 389.044 118.848 392.416C117.027 395.788 116.117 399.752 116.117 404.309C116.117 408.866 117.027 412.83 118.848 416.202C120.76 419.574 123.217 422.171 126.222 423.994C129.317 425.726 132.594 426.591 136.053 426.591C139.603 426.591 142.881 425.68 145.885 423.857C148.98 422.035 151.438 419.437 153.258 416.065C155.17 412.693 156.126 408.683 156.126 404.035Z" fill="white"/>
<path d="M199.239 357.419C195.871 357.419 193.049 356.371 190.773 354.275C188.588 352.088 187.496 349.399 187.496 346.21C187.496 343.02 188.588 340.377 190.773 338.281C193.049 336.094 195.871 335 199.239 335C202.607 335 205.384 336.094 207.569 338.281C209.844 340.377 210.982 343.02 210.982 346.21C210.982 349.399 209.844 352.088 207.569 354.275C205.384 356.371 202.607 357.419 199.239 357.419ZM208.661 366.442V442.176H189.544V366.442H208.661Z" fill="white"/>
<path d="M272.337 442.176L246.665 409.914V442.176H227.548V341.015H246.665V398.567L272.063 366.442H296.915L263.597 404.445L297.189 442.176H272.337Z" fill="white"/>
<path d="M298.582 404.309C298.582 396.471 300.175 389.636 303.361 383.803C306.548 377.879 310.963 373.323 316.607 370.133C322.251 366.852 328.714 365.212 335.997 365.212C345.373 365.212 353.111 367.581 359.21 372.32C365.4 376.968 369.542 383.53 371.636 392.005H351.017C349.925 388.725 348.059 386.173 345.419 384.35C342.87 382.436 339.684 381.479 335.86 381.479C330.398 381.479 326.074 383.484 322.888 387.494C319.702 391.413 318.109 397.018 318.109 404.309C318.109 411.508 319.702 417.113 322.888 421.123C326.074 425.042 330.398 427.002 335.86 427.002C343.598 427.002 348.65 423.538 351.017 416.612H371.636C369.542 424.814 365.4 431.331 359.21 436.161C353.02 440.991 345.282 443.406 335.997 443.406C328.714 443.406 322.251 441.811 316.607 438.621C310.963 435.34 306.548 430.784 303.361 424.951C300.175 419.027 298.582 412.146 298.582 404.309Z" fill="white"/>
<path d="M400.965 378.198C403.423 374.188 406.609 371.044 410.523 368.766C414.529 366.487 419.08 365.348 424.178 365.348V385.444H419.126C413.118 385.444 408.566 386.856 405.471 389.681C402.467 392.507 400.965 397.428 400.965 404.445V442.176H381.848V366.442H400.965V378.198Z" fill="white"/>
<path d="M482.798 431.376C480.704 434.839 477.291 437.756 472.557 440.125C467.823 442.404 462.725 443.543 457.263 443.543C452.53 443.543 448.251 442.586 444.428 440.672C440.605 438.758 437.6 436.115 435.416 432.743C433.231 429.371 432.138 425.498 432.138 421.123C432.138 414.106 434.733 408.364 439.922 403.899C445.202 399.433 453.076 397.2 463.545 397.2H482.798C482.616 392.37 481.205 388.542 478.565 385.717C476.016 382.801 472.466 381.343 467.914 381.343C463.909 381.343 460.586 382.436 457.946 384.623C455.306 386.72 453.622 389.681 452.894 393.509H433.777C434.687 388.041 436.645 383.165 439.649 378.882C442.744 374.507 446.749 371.135 451.665 368.766C456.672 366.305 462.27 365.075 468.461 365.075C474.833 365.075 480.568 366.396 485.666 369.039C490.855 371.682 494.906 375.464 497.819 380.386C500.732 385.307 502.188 391.094 502.188 397.747V442.176H482.798V431.376ZM462.862 428.095C466.048 428.095 469.143 427.412 472.147 426.045C475.242 424.678 477.791 422.627 479.794 419.893C481.797 417.159 482.798 413.924 482.798 410.187V409.64H464.637C460.268 409.64 456.99 410.506 454.806 412.238C452.712 413.969 451.665 416.248 451.665 419.073C451.665 421.807 452.621 423.994 454.533 425.635C456.535 427.275 459.312 428.095 462.862 428.095Z" fill="white"/>
<path d="M542.502 382.163V442.176H523.112V382.163H514.51V366.442H523.112V362.614C523.112 353.318 525.752 346.483 531.032 342.109C536.312 337.734 544.277 335.684 554.928 335.957V352.088C550.285 351.997 547.054 352.771 545.233 354.412C543.413 356.052 542.502 359.014 542.502 363.298V366.442H567.347V347.713H586.601V366.442H603.533V382.163H586.601V418.799C586.601 421.351 587.192 423.219 588.376 424.404C589.65 425.498 591.744 426.045 594.657 426.045H603.533V442.176H591.516C575.404 442.176 567.347 434.338 567.347 418.663V382.163H542.502Z" fill="white"/>
<path d="M735.113 329.818C736.027 328.462 737.28 327.36 738.872 326.512C740.498 325.664 742.344 325.241 744.41 325.241C746.815 325.241 748.982 325.834 750.913 327.021C752.877 328.208 754.418 329.903 755.536 332.107C756.688 334.277 757.264 336.803 757.264 339.685C757.264 342.568 756.688 345.128 755.536 347.366C754.418 349.57 752.877 351.282 750.913 352.503C748.982 353.723 746.815 354.334 744.41 354.334C742.31 354.334 740.464 353.927 738.872 353.113C737.314 352.265 736.061 351.18 735.113 349.858V353.876H728V316.238H735.113V329.818ZM749.998 339.685C749.998 337.99 749.643 336.532 748.932 335.311C748.254 334.057 747.34 333.107 746.188 332.463C745.07 331.819 743.851 331.497 742.53 331.497C741.243 331.497 740.024 331.836 738.872 332.514C737.755 333.158 736.84 334.108 736.129 335.362C735.451 336.617 735.113 338.092 735.113 339.787C735.113 341.483 735.451 342.958 736.129 344.212C736.84 345.467 737.755 346.433 738.872 347.111C740.024 347.756 741.243 348.078 742.53 348.078C743.851 348.078 745.07 347.739 746.188 347.06C747.34 346.382 748.254 345.416 748.932 344.161C749.643 342.907 749.998 341.415 749.998 339.685Z" fill="white"/>
<path d="M766.039 322.341C764.786 322.341 763.736 321.951 762.889 321.172C762.076 320.358 761.67 319.357 761.67 318.171C761.67 316.984 762.076 316.001 762.889 315.221C763.736 314.407 764.786 314 766.039 314C767.292 314 768.325 314.407 769.138 315.221C769.985 316.001 770.408 316.984 770.408 318.171C770.408 319.357 769.985 320.358 769.138 321.172C768.325 321.951 767.292 322.341 766.039 322.341ZM769.545 325.698V353.876H762.432V325.698H769.545Z" fill="white"/>
<path d="M793.236 353.876L783.685 341.873V353.876H776.572V316.238H783.685V337.651L793.134 325.698H802.381L789.985 339.838L802.483 353.876H793.236Z" fill="white"/>
<path d="M803.001 339.787C803.001 336.871 803.594 334.328 804.779 332.158C805.965 329.954 807.607 328.258 809.707 327.072C811.807 325.851 814.212 325.241 816.922 325.241C820.41 325.241 823.289 326.122 825.558 327.885C827.862 329.615 829.403 332.056 830.182 335.21H822.51C822.104 333.989 821.409 333.039 820.427 332.361C819.479 331.649 818.293 331.293 816.871 331.293C814.839 331.293 813.23 332.039 812.044 333.531C810.859 334.989 810.266 337.075 810.266 339.787C810.266 342.466 810.859 344.551 812.044 346.043C813.23 347.501 814.839 348.23 816.871 348.23C819.75 348.23 821.629 346.942 822.51 344.365H830.182C829.403 347.416 827.862 349.841 825.558 351.638C823.255 353.435 820.376 354.334 816.922 354.334C814.212 354.334 811.807 353.74 809.707 352.554C807.607 351.333 805.965 349.637 804.779 347.467C803.594 345.263 803.001 342.703 803.001 339.787Z" fill="white"/>
<path d="M841.094 330.072C842.008 328.581 843.194 327.411 844.65 326.563C846.14 325.715 847.834 325.291 849.731 325.291V332.768H847.851C845.615 332.768 843.922 333.294 842.77 334.345C841.653 335.396 841.094 337.227 841.094 339.838V353.876H833.981V325.698H841.094V330.072Z" fill="white"/>
<path d="M871.541 349.858C870.762 351.146 869.492 352.231 867.73 353.113C865.969 353.961 864.073 354.385 862.04 354.385C860.279 354.385 858.687 354.029 857.265 353.317C855.842 352.604 854.724 351.621 853.912 350.366C853.099 349.112 852.692 347.671 852.692 346.043C852.692 343.432 853.658 341.296 855.588 339.635C857.553 337.973 860.482 337.142 864.377 337.142H871.541C871.473 335.345 870.948 333.921 869.966 332.87C869.018 331.785 867.697 331.242 866.003 331.242C864.513 331.242 863.277 331.649 862.294 332.463C861.312 333.243 860.686 334.345 860.415 335.769H853.302C853.641 333.735 854.369 331.92 855.487 330.327C856.638 328.699 858.128 327.445 859.957 326.563C861.82 325.647 863.903 325.19 866.206 325.19C868.577 325.19 870.711 325.681 872.608 326.665C874.538 327.648 876.046 329.055 877.129 330.886C878.213 332.717 878.755 334.87 878.755 337.346V353.876H871.541V349.858ZM864.123 348.637C865.309 348.637 866.46 348.383 867.578 347.874C868.73 347.366 869.678 346.603 870.423 345.585C871.168 344.568 871.541 343.364 871.541 341.974V341.771H864.784C863.158 341.771 861.939 342.093 861.126 342.737C860.347 343.381 859.957 344.229 859.957 345.28C859.957 346.298 860.313 347.111 861.024 347.722C861.769 348.332 862.802 348.637 864.123 348.637Z" fill="white"/>
<path d="M893.754 331.547V353.876H886.54V331.547H883.339V325.698H886.54V324.274C886.54 320.816 887.522 318.272 889.487 316.645C891.451 315.017 894.415 314.254 898.378 314.356V320.358C896.65 320.324 895.448 320.612 894.771 321.222C894.093 321.833 893.754 322.935 893.754 324.528V325.698H902.998V318.73H910.162V325.698H916.462V331.547H910.162V345.179C910.162 346.128 910.382 346.823 910.822 347.264C911.296 347.671 912.075 347.874 913.159 347.874H916.462V353.876H911.991C905.996 353.876 902.998 350.96 902.998 345.128V331.547H893.754Z" fill="white"/>
<path d="M562.209 131.377C563.908 128.858 566.235 126.811 569.191 125.237C572.211 123.662 575.639 122.875 579.476 122.875C583.942 122.875 587.967 123.977 591.553 126.181C595.201 128.385 598.063 131.534 600.139 135.627C602.277 139.657 603.347 144.349 603.347 149.702C603.347 155.054 602.277 159.809 600.139 163.965C598.063 168.058 595.201 171.238 591.553 173.505C587.967 175.772 583.942 176.906 579.476 176.906C575.576 176.906 572.148 176.15 569.191 174.639C566.298 173.064 563.97 171.049 562.209 168.593V176.055H549V106.156H562.209V131.377ZM589.854 149.702C589.854 146.553 589.194 143.845 587.873 141.578C586.615 139.248 584.917 137.485 582.778 136.288C580.702 135.092 578.438 134.494 575.985 134.494C573.594 134.494 571.33 135.123 569.191 136.383C567.116 137.579 565.417 139.343 564.096 141.673C562.838 144.003 562.209 146.742 562.209 149.89C562.209 153.039 562.838 155.778 564.096 158.108C565.417 160.438 567.116 162.233 569.191 163.492C571.33 164.689 573.594 165.287 575.985 165.287C578.438 165.287 580.702 164.657 582.778 163.398C584.917 162.139 586.615 160.344 587.873 158.014C589.194 155.684 589.854 152.913 589.854 149.702Z" fill="black"/>
<path d="M619.644 117.491C617.317 117.491 615.367 116.767 613.795 115.319C612.285 113.807 611.53 111.95 611.53 109.746C611.53 107.542 612.285 105.715 613.795 104.267C615.367 102.756 617.317 102 619.644 102C621.972 102 623.89 102.756 625.4 104.267C626.972 105.715 627.759 107.542 627.759 109.746C627.759 111.95 626.972 113.807 625.4 115.319C623.89 116.767 621.972 117.491 619.644 117.491ZM626.155 123.725V176.055H612.945V123.725H626.155Z" fill="black"/>
<path d="M670.153 176.055L652.415 153.763V176.055H639.205V106.156H652.415V145.923L669.964 123.725H687.136L664.114 149.985L687.325 176.055H670.153Z" fill="black"/>
<path d="M688.288 149.89C688.288 144.475 689.389 139.752 691.59 135.722C693.792 131.628 696.842 128.48 700.742 126.276C704.642 124.009 709.108 122.875 714.14 122.875C720.619 122.875 725.966 124.513 730.18 127.787C734.457 130.999 737.319 135.533 738.766 141.389H724.519C723.764 139.122 722.474 137.359 720.65 136.099C718.889 134.777 716.688 134.116 714.046 134.116C710.272 134.116 707.284 135.501 705.082 138.272C702.881 140.98 701.78 144.853 701.78 149.89C701.78 154.865 702.881 158.738 705.082 161.509C707.284 164.217 710.272 165.571 714.046 165.571C719.392 165.571 722.883 163.178 724.519 158.392H738.766C737.319 164.059 734.457 168.562 730.18 171.899C725.903 175.237 720.556 176.906 714.14 176.906C709.108 176.906 704.642 175.804 700.742 173.599C696.842 171.332 693.792 168.184 691.59 164.154C689.389 160.06 688.288 155.306 688.288 149.89Z" fill="black"/>
<path d="M759.031 131.849C760.73 129.078 762.931 126.906 765.636 125.331C768.403 123.757 771.548 122.97 775.071 122.97V136.855H771.58C767.428 136.855 764.283 137.831 762.145 139.783C760.069 141.736 759.031 145.136 759.031 149.985V176.055H745.822V123.725H759.031V131.849Z" fill="black"/>
<path d="M815.576 168.593C814.129 170.986 811.77 173.001 808.499 174.639C805.229 176.213 801.706 177 797.932 177C794.661 177 791.705 176.339 789.063 175.016C786.421 173.694 784.345 171.868 782.836 169.538C781.326 167.208 780.571 164.531 780.571 161.509C780.571 156.66 782.364 152.693 785.949 149.607C789.598 146.521 795.039 144.979 802.272 144.979H815.576C815.45 141.641 814.475 138.996 812.651 137.044C810.89 135.029 808.437 134.021 805.292 134.021C802.524 134.021 800.228 134.777 798.404 136.288C796.58 137.737 795.416 139.783 794.913 142.428H781.704C782.333 138.65 783.685 135.281 785.761 132.321C787.899 129.298 790.667 126.969 794.064 125.331C797.523 123.631 801.392 122.781 805.669 122.781C810.072 122.781 814.035 123.694 817.557 125.52C821.143 127.346 823.942 129.96 825.954 133.36C827.967 136.761 828.974 140.759 828.974 145.356V176.055H815.576V168.593ZM801.8 166.326C804.002 166.326 806.141 165.854 808.216 164.909C810.355 163.965 812.116 162.548 813.5 160.659C814.884 158.77 815.576 156.534 815.576 153.952V153.574H803.027C800.008 153.574 797.743 154.173 796.234 155.369C794.787 156.565 794.064 158.14 794.064 160.092C794.064 161.981 794.724 163.492 796.045 164.626C797.429 165.759 799.347 166.326 801.8 166.326Z" fill="black"/>
<path d="M856.83 134.588V176.055H843.432V134.588H837.488V123.725H843.432V121.081C843.432 114.657 845.256 109.935 848.904 106.912C852.552 103.889 858.056 102.472 865.416 102.661V113.807C862.208 113.744 859.975 114.28 858.717 115.413C857.459 116.547 856.83 118.593 856.83 121.553V123.725H873.997V110.785H887.3V123.725H899V134.588H887.3V159.903C887.3 161.666 887.709 162.957 888.527 163.776C889.408 164.531 890.854 164.909 892.867 164.909H899V176.055H890.697C879.564 176.055 873.997 170.64 873.997 159.809V134.588H856.83Z" fill="black"/>
</svg>
